<?xml version="1.0" encoding="iso-8859-1"?>
<!-- Generator: Adobe Illustrator 16.0.0, SVG Export Plug-In . SVG Version: 6.00 Build 0)  -->
<!DOCTYPE svg PUBLIC "-//W3C//DTD SVG 1.1//EN" "http://www.w3.org/Graphics/SVG/1.1/DTD/svg11.dtd">
<svg version="1.1" id="Layer_1" xmlns="http://www.w3.org/2000/svg" xmlns:xlink="http://www.w3.org/1999/xlink" x="0px" y="0px"
	 width="26.935px" height="31.679px" viewBox="0 0 26.935 31.679" style="enable-background:new 0 0 26.935 31.679;"
	 xml:space="preserve">
<g>
	<path fill="#22A39F" d="M13.509,3.568c-0.013,0-0.038-0.003-0.038-0.003c-0.015,0-0.03-0.002-0.045-0.002c-5.352,0-9.691,4.34-9.691,9.69
		c0,5.353,4.339,9.691,9.691,9.691c0.013,0,0.025-0.001,0.038-0.002c0,0,0.03,0.007,0.045,0.007c5.352,0,9.691-4.339,9.691-9.691
		C23.2,7.908,18.861,3.568,13.509,3.568z"/>
	<path fill="#22A39F" d="M22.958,20.994c0.132-0.035,0.282-0.045,0.448-0.019c0.716,0.109,1.035-0.33,0.709-0.975c-0.324-0.647,0-1.21,0.722-1.25
		c0.723-0.042,0.944-0.538,0.492-1.102c-0.453-0.565-0.253-1.183,0.445-1.373c0.699-0.19,0.811-0.723,0.25-1.18
		c-0.561-0.458-0.492-1.104,0.15-1.438c0.645-0.331,0.645-0.871,0-1.204c-0.643-0.332-0.711-0.978-0.15-1.436
		s0.448-0.988-0.25-1.179c-0.698-0.19-0.898-0.809-0.445-1.374c0.452-0.563,0.231-1.06-0.492-1.101
		c-0.722-0.042-1.046-0.604-0.722-1.249c0.326-0.647,0.007-1.087-0.709-0.976c-0.715,0.108-1.149-0.373-0.965-1.073
		s-0.219-1.063-0.896-0.808c-0.678,0.256-1.202-0.125-1.168-0.848c0.035-0.724-0.435-0.995-1.043-0.602
		c-0.609,0.391-1.202,0.127-1.319-0.588c-0.117-0.716-0.632-0.883-1.146-0.374c-0.514,0.51-1.15,0.374-1.412-0.3
		s-0.803-0.729-1.198-0.126c-0.215,0.328-0.503,0.46-0.787,0.433V0.852c-0.286,0.031-0.577-0.103-0.794-0.433
		c-0.396-0.604-0.936-0.548-1.198,0.126s-0.898,0.81-1.412,0.3C9.553,0.335,9.038,0.502,8.921,1.218
		C8.804,1.933,8.21,2.197,7.602,1.806C6.993,1.413,6.523,1.684,6.558,2.408C6.591,3.13,6.067,3.511,5.39,3.255
		C4.713,3,4.31,3.363,4.494,4.063s-0.25,1.182-0.965,1.073C2.813,5.025,2.494,5.464,2.82,6.112c0.324,0.646,0,1.207-0.722,1.249
		C1.375,7.402,1.154,7.898,1.606,8.461C2.06,9.027,1.859,9.645,1.162,9.835c-0.699,0.19-0.811,0.721-0.25,1.179
		s0.492,1.104-0.15,1.436c-0.645,0.333-0.645,0.873,0,1.204c0.643,0.334,0.711,0.979,0.15,1.438c-0.561,0.457-0.448,0.989,0.25,1.18
		c0.698,0.19,0.898,0.808,0.445,1.373c-0.452,0.563-0.231,1.06,0.492,1.102c0.722,0.04,1.046,0.603,0.722,1.25
		C2.494,20.64,2.813,21.08,3.529,20.97c0.167-0.026,0.316-0.017,0.448,0.019L0,28.437h4.2l2.134,3.236l4.018-6.617
		c0.445-0.232,0.912-0.048,1.127,0.505c0.262,0.675,0.803,0.73,1.198,0.126c0.215-0.327,0.503-0.459,0.787-0.432v0.005
		c0.286-0.031,0.577,0.102,0.794,0.432c0.396,0.604,0.936,0.549,1.198-0.126c0.215-0.553,0.682-0.737,1.127-0.505l4.018,6.617
		l2.134-3.236h4.2L22.958,20.994z M18.622,22.49l-0.152,0.083c-1.486,0.789-3.18,1.24-4.979,1.24c-0.007,0-0.02-0.007-0.02-0.007
		c-0.009,0-0.018,0.001-0.027,0.001c-1.799,0-3.493-0.451-4.979-1.24l-0.152-0.083c-3.259-1.8-5.472-5.253-5.472-9.214
		c0-5.809,4.757-10.535,10.603-10.535c0.007,0,0.02,0.007,0.02,0.007c0.009,0,0.018-0.001,0.027-0.001
		c5.846,0,10.603,4.727,10.603,10.535C24.093,17.237,21.881,20.69,18.622,22.49z"/>
</g>
<g>
</g>
<g>
</g>
<g>
</g>
<g>
</g>
<g>
</g>
<g>
</g>
<g>
</g>
<g>
</g>
<g>
</g>
<g>
</g>
<g>
</g>
<g>
</g>
<g>
</g>
<g>
</g>
<g>
</g>
</svg>
